{
	"patcher" : 	{
		"fileversion" : 1,
		"appversion" : 		{
			"major" : 8,
			"minor" : 1,
			"revision" : 11,
			"architecture" : "x64",
			"modernui" : 1
		}
,
		"classnamespace" : "box",
		"rect" : [ 79.0, 87.0, 935.0, 779.0 ],
		"bglocked" : 0,
		"openinpresentation" : 0,
		"default_fontsize" : 12.0,
		"default_fontface" : 0,
		"default_fontname" : "Arial",
		"gridonopen" : 2,
		"gridsize" : [ 15.0, 15.0 ],
		"gridsnaponopen" : 2,
		"objectsnaponopen" : 1,
		"statusbarvisible" : 2,
		"toolbarvisible" : 1,
		"lefttoolbarpinned" : 0,
		"toptoolbarpinned" : 0,
		"righttoolbarpinned" : 0,
		"bottomtoolbarpinned" : 0,
		"toolbars_unpinned_last_save" : 0,
		"tallnewobj" : 0,
		"boxanimatetime" : 200,
		"enablehscroll" : 1,
		"enablevscroll" : 1,
		"devicewidth" : 0.0,
		"description" : "",
		"digest" : "",
		"tags" : "",
		"style" : "",
		"subpatcher_template" : "Default Max 7",
		"showontab" : 1,
		"assistshowspatchername" : 0,
		"title" : "MetaBow Toolkit Example - Score Following",
		"boxes" : [ 			{
				"box" : 				{
					"color" : [ 0.0, 1.0, 0.513725490196078, 1.0 ],
					"id" : "obj-39",
					"maxclass" : "newobj",
					"numinlets" : 0,
					"numoutlets" : 1,
					"outlettype" : [ "" ],
					"patching_rect" : [ 435.0, 666.0, 156.0, 22.0 ],
					"text" : "r static_gesture_recognition",
					"textcolor" : [ 1.0, 1.0, 1.0, 1.0 ]
				}

			}
, 			{
				"box" : 				{
					"id" : "obj-18",
					"maxclass" : "newobj",
					"numinlets" : 3,
					"numoutlets" : 1,
					"outlettype" : [ "signal" ],
					"patcher" : 					{
						"fileversion" : 1,
						"appversion" : 						{
							"major" : 8,
							"minor" : 1,
							"revision" : 11,
							"architecture" : "x64",
							"modernui" : 1
						}
,
						"classnamespace" : "box",
						"rect" : [ 487.0, 131.0, 1327.0, 779.0 ],
						"bglocked" : 0,
						"openinpresentation" : 0,
						"default_fontsize" : 12.0,
						"default_fontface" : 0,
						"default_fontname" : "Arial",
						"gridonopen" : 1,
						"gridsize" : [ 15.0, 15.0 ],
						"gridsnaponopen" : 1,
						"objectsnaponopen" : 1,
						"statusbarvisible" : 2,
						"toolbarvisible" : 1,
						"lefttoolbarpinned" : 0,
						"toptoolbarpinned" : 0,
						"righttoolbarpinned" : 0,
						"bottomtoolbarpinned" : 0,
						"toolbars_unpinned_last_save" : 0,
						"tallnewobj" : 0,
						"boxanimatetime" : 200,
						"enablehscroll" : 1,
						"enablevscroll" : 1,
						"devicewidth" : 0.0,
						"description" : "",
						"digest" : "",
						"tags" : "",
						"style" : "",
						"subpatcher_template" : "Default Max 7",
						"assistshowspatchername" : 0,
						"boxes" : [ 							{
								"box" : 								{
									"id" : "obj-31",
									"maxclass" : "newobj",
									"numinlets" : 1,
									"numoutlets" : 2,
									"outlettype" : [ "float", "float" ],
									"patching_rect" : [ 285.0, 86.0, 94.0, 22.0 ],
									"text" : "unpack f f"
								}

							}
, 							{
								"box" : 								{
									"id" : "obj-28",
									"maxclass" : "newobj",
									"numinlets" : 2,
									"numoutlets" : 2,
									"outlettype" : [ "", "" ],
									"patching_rect" : [ 285.0, 56.0, 89.0, 22.0 ],
									"text" : "route likelihood"
								}

							}
, 							{
								"box" : 								{
									"id" : "obj-35",
									"maxclass" : "newobj",
									"numinlets" : 2,
									"numoutlets" : 2,
									"outlettype" : [ "signal", "bang" ],
									"patching_rect" : [ 360.0, 152.0, 34.0, 22.0 ],
									"text" : "line~"
								}

							}
, 							{
								"box" : 								{
									"id" : "obj-36",
									"maxclass" : "message",
									"numinlets" : 2,
									"numoutlets" : 1,
									"outlettype" : [ "" ],
									"patching_rect" : [ 360.0, 120.0, 39.0, 22.0 ],
									"text" : "$1 50"
								}

							}
, 							{
								"box" : 								{
									"id" : "obj-34",
									"maxclass" : "newobj",
									"numinlets" : 2,
									"numoutlets" : 2,
									"outlettype" : [ "signal", "bang" ],
									"patching_rect" : [ 285.0, 152.0, 34.0, 22.0 ],
									"text" : "line~"
								}

							}
, 							{
								"box" : 								{
									"id" : "obj-33",
									"maxclass" : "message",
									"numinlets" : 2,
									"numoutlets" : 1,
									"outlettype" : [ "" ],
									"patching_rect" : [ 285.0, 120.0, 39.0, 22.0 ],
									"text" : "$1 50"
								}

							}
, 							{
								"box" : 								{
									"id" : "obj-25",
									"maxclass" : "newobj",
									"numinlets" : 2,
									"numoutlets" : 1,
									"outlettype" : [ "signal" ],
									"patching_rect" : [ 150.0, 223.0, 29.5, 22.0 ],
									"text" : "*~"
								}

							}
, 							{
								"box" : 								{
									"id" : "obj-24",
									"maxclass" : "newobj",
									"numinlets" : 2,
									"numoutlets" : 1,
									"outlettype" : [ "signal" ],
									"patching_rect" : [ 15.0, 223.0, 29.5, 22.0 ],
									"text" : "*~"
								}

							}
, 							{
								"box" : 								{
									"comment" : "",
									"id" : "obj-37",
									"index" : 1,
									"maxclass" : "inlet",
									"numinlets" : 0,
									"numoutlets" : 1,
									"outlettype" : [ "signal" ],
									"patching_rect" : [ 15.0, 17.0, 30.0, 30.0 ]
								}

							}
, 							{
								"box" : 								{
									"comment" : "",
									"id" : "obj-39",
									"index" : 2,
									"maxclass" : "inlet",
									"numinlets" : 0,
									"numoutlets" : 1,
									"outlettype" : [ "signal" ],
									"patching_rect" : [ 150.0, 17.0, 30.0, 30.0 ]
								}

							}
, 							{
								"box" : 								{
									"comment" : "",
									"id" : "obj-40",
									"index" : 3,
									"maxclass" : "inlet",
									"numinlets" : 0,
									"numoutlets" : 1,
									"outlettype" : [ "" ],
									"patching_rect" : [ 285.0, 17.0, 30.0, 30.0 ]
								}

							}
, 							{
								"box" : 								{
									"comment" : "",
									"id" : "obj-43",
									"index" : 1,
									"maxclass" : "outlet",
									"numinlets" : 1,
									"numoutlets" : 0,
									"patching_rect" : [ 15.0, 281.0, 30.0, 30.0 ]
								}

							}
 ],
						"lines" : [ 							{
								"patchline" : 								{
									"destination" : [ "obj-43", 0 ],
									"source" : [ "obj-24", 0 ]
								}

							}
, 							{
								"patchline" : 								{
									"destination" : [ "obj-43", 0 ],
									"source" : [ "obj-25", 0 ]
								}

							}
, 							{
								"patchline" : 								{
									"destination" : [ "obj-31", 0 ],
									"source" : [ "obj-28", 0 ]
								}

							}
, 							{
								"patchline" : 								{
									"destination" : [ "obj-33", 0 ],
									"source" : [ "obj-31", 0 ]
								}

							}
, 							{
								"patchline" : 								{
									"destination" : [ "obj-36", 0 ],
									"source" : [ "obj-31", 1 ]
								}

							}
, 							{
								"patchline" : 								{
									"destination" : [ "obj-34", 0 ],
									"source" : [ "obj-33", 0 ]
								}

							}
, 							{
								"patchline" : 								{
									"destination" : [ "obj-24", 1 ],
									"midpoints" : [ 294.5, 208.0, 35.0, 208.0 ],
									"source" : [ "obj-34", 0 ]
								}

							}
, 							{
								"patchline" : 								{
									"destination" : [ "obj-25", 1 ],
									"midpoints" : [ 369.5, 208.0, 170.0, 208.0 ],
									"source" : [ "obj-35", 0 ]
								}

							}
, 							{
								"patchline" : 								{
									"destination" : [ "obj-35", 0 ],
									"source" : [ "obj-36", 0 ]
								}

							}
, 							{
								"patchline" : 								{
									"destination" : [ "obj-24", 0 ],
									"midpoints" : [ 24.5, 49.0, 24.5, 49.0 ],
									"source" : [ "obj-37", 0 ]
								}

							}
, 							{
								"patchline" : 								{
									"destination" : [ "obj-25", 0 ],
									"midpoints" : [ 159.5, 49.0, 159.5, 49.0 ],
									"source" : [ "obj-39", 0 ]
								}

							}
, 							{
								"patchline" : 								{
									"destination" : [ "obj-28", 0 ],
									"source" : [ "obj-40", 0 ]
								}

							}
 ]
					}
,
					"patching_rect" : [ 357.5, 704.0, 160.0, 22.0 ],
					"saved_object_attributes" : 					{
						"description" : "",
						"digest" : "",
						"globalpatchername" : "",
						"tags" : ""
					}
,
					"text" : "p volume_control"
				}

			}
, 			{
				"box" : 				{
					"fontname" : "Arial",
					"fontsize" : 12.0,
					"hidden" : 1,
					"id" : "obj-56",
					"maxclass" : "newobj",
					"numinlets" : 1,
					"numoutlets" : 1,
					"outlettype" : [ "" ],
					"patching_rect" : [ 934.0, 704.0, 81.0, 22.0 ],
					"text" : "loadmess set"
				}

			}
, 			{
				"box" : 				{
					"fontname" : "Arial",
					"fontsize" : 12.0,
					"hidden" : 1,
					"id" : "obj-122",
					"maxclass" : "newobj",
					"numinlets" : 1,
					"numoutlets" : 1,
					"outlettype" : [ "" ],
					"patching_rect" : [ 245.5, 784.0, 56.0, 22.0 ],
					"text" : "deferlow"
				}

			}
, 			{
				"box" : 				{
					"fontname" : "Arial",
					"fontsize" : 12.0,
					"hidden" : 1,
					"id" : "obj-121",
					"maxclass" : "newobj",
					"numinlets" : 1,
					"numoutlets" : 1,
					"outlettype" : [ "" ],
					"patching_rect" : [ 245.5, 756.0, 72.0, 22.0 ],
					"text" : "loadmess 1"
				}

			}
, 			{
				"box" : 				{
					"fontname" : "Arial",
					"fontsize" : 12.0,
					"id" : "obj-120",
					"maxclass" : "newobj",
					"numinlets" : 1,
					"numoutlets" : 1,
					"outlettype" : [ "signal" ],
					"patcher" : 					{
						"fileversion" : 1,
						"appversion" : 						{
							"major" : 8,
							"minor" : 1,
							"revision" : 11,
							"architecture" : "x64",
							"modernui" : 1
						}
,
						"classnamespace" : "box",
						"rect" : [ 729.0, 87.0, 578.0, 524.0 ],
						"bglocked" : 0,
						"openinpresentation" : 0,
						"default_fontsize" : 12.0,
						"default_fontface" : 0,
						"default_fontname" : "Arial",
						"gridonopen" : 1,
						"gridsize" : [ 15.0, 15.0 ],
						"gridsnaponopen" : 1,
						"objectsnaponopen" : 1,
						"statusbarvisible" : 2,
						"toolbarvisible" : 1,
						"lefttoolbarpinned" : 0,
						"toptoolbarpinned" : 0,
						"righttoolbarpinned" : 0,
						"bottomtoolbarpinned" : 0,
						"toolbars_unpinned_last_save" : 0,
						"tallnewobj" : 0,
						"boxanimatetime" : 200,
						"enablehscroll" : 1,
						"enablevscroll" : 1,
						"devicewidth" : 0.0,
						"description" : "",
						"digest" : "",
						"tags" : "",
						"style" : "",
						"subpatcher_template" : "",
						"assistshowspatchername" : 0,
						"boxes" : [ 							{
								"box" : 								{
									"fontname" : "Arial",
									"fontsize" : 12.0,
									"id" : "obj-14",
									"linecount" : 2,
									"maxclass" : "comment",
									"numinlets" : 1,
									"numoutlets" : 0,
									"patching_rect" : [ 13.0, 472.0, 372.0, 33.0 ],
									"text" : "... and if you happen to be familiar with Max's qlist object you have probably noticed that the sending mechanism is basically the same."
								}

							}
, 							{
								"box" : 								{
									"fontname" : "Arial",
									"fontsize" : 12.0,
									"id" : "obj-12",
									"linecount" : 2,
									"maxclass" : "comment",
									"numinlets" : 1,
									"numoutlets" : 0,
									"patching_rect" : [ 212.0, 294.0, 275.0, 33.0 ],
									"text" : "If you are curious to figure out how this magic works, look inside the harmo or delay patches..."
								}

							}
, 							{
								"box" : 								{
									"fontname" : "Arial",
									"fontsize" : 12.0,
									"id" : "obj-10",
									"maxclass" : "comment",
									"numinlets" : 1,
									"numoutlets" : 0,
									"patching_rect" : [ 13.0, 191.0, 316.0, 20.0 ],
									"text" : "Now let's turn on the treatments and play the piece again."
								}

							}
, 							{
								"box" : 								{
									"id" : "obj-8",
									"lastchannelcount" : 0,
									"maxclass" : "live.gain~",
									"numinlets" : 2,
									"numoutlets" : 5,
									"orientation" : 1,
									"outlettype" : [ "signal", "signal", "", "float", "list" ],
									"parameter_enable" : 1,
									"patching_rect" : [ 151.0, 360.0, 136.0, 47.0 ],
									"saved_attribute_attributes" : 									{
										"valueof" : 										{
											"parameter_initial" : [ 0.0 ],
											"parameter_longname" : "live.gain~[2]",
											"parameter_mmax" : 6.0,
											"parameter_mmin" : -70.0,
											"parameter_shortname" : "live.gain~",
											"parameter_type" : 0,
											"parameter_unitstyle" : 4
										}

									}
,
									"varname" : "live.gain~[1]"
								}

							}
, 							{
								"box" : 								{
									"id" : "obj-18",
									"lastchannelcount" : 0,
									"maxclass" : "live.gain~",
									"numinlets" : 2,
									"numoutlets" : 5,
									"orientation" : 1,
									"outlettype" : [ "signal", "signal", "", "float", "list" ],
									"parameter_enable" : 1,
									"patching_rect" : [ 13.0, 360.0, 136.0, 47.0 ],
									"saved_attribute_attributes" : 									{
										"valueof" : 										{
											"parameter_initial" : [ 0.0 ],
											"parameter_longname" : "live.gain~[1]",
											"parameter_mmax" : 6.0,
											"parameter_mmin" : -70.0,
											"parameter_shortname" : "live.gain~",
											"parameter_type" : 0,
											"parameter_unitstyle" : 4
										}

									}
,
									"varname" : "live.gain~"
								}

							}
, 							{
								"box" : 								{
									"fontname" : "Arial",
									"fontsize" : 12.0,
									"id" : "obj-2",
									"maxclass" : "comment",
									"numinlets" : 1,
									"numoutlets" : 0,
									"patching_rect" : [ 13.0, 12.0, 558.0, 20.0 ],
									"text" : "Ok, now let's add some treatments to the sound."
								}

							}
, 							{
								"box" : 								{
									"fontname" : "Arial",
									"fontsize" : 12.0,
									"id" : "obj-117",
									"maxclass" : "tab",
									"numinlets" : 1,
									"numoutlets" : 3,
									"outlettype" : [ "int", "", "" ],
									"parameter_enable" : 0,
									"patching_rect" : [ 13.0, 227.0, 193.0, 22.5 ],
									"tabs" : [ "Treatments Off", "Treatments On" ]
								}

							}
, 							{
								"box" : 								{
									"fontname" : "Arial",
									"fontsize" : 12.0,
									"id" : "obj-116",
									"maxclass" : "newobj",
									"numinlets" : 2,
									"numoutlets" : 1,
									"outlettype" : [ "signal" ],
									"patching_rect" : [ 13.0, 261.0, 232.0, 22.0 ],
									"text" : "gate~"
								}

							}
, 							{
								"box" : 								{
									"comment" : "",
									"id" : "obj-118",
									"index" : 1,
									"maxclass" : "inlet",
									"numinlets" : 0,
									"numoutlets" : 1,
									"outlettype" : [ "signal" ],
									"patching_rect" : [ 226.0, 224.5, 25.0, 25.0 ]
								}

							}
, 							{
								"box" : 								{
									"comment" : "",
									"id" : "obj-119",
									"index" : 1,
									"maxclass" : "outlet",
									"numinlets" : 1,
									"numoutlets" : 0,
									"patching_rect" : [ 13.0, 431.0, 25.0, 25.0 ]
								}

							}
, 							{
								"box" : 								{
									"fontname" : "Arial",
									"fontsize" : 12.0,
									"id" : "obj-108",
									"maxclass" : "newobj",
									"numinlets" : 1,
									"numoutlets" : 1,
									"outlettype" : [ "signal" ],
									"patcher" : 									{
										"fileversion" : 1,
										"appversion" : 										{
											"major" : 8,
											"minor" : 1,
											"revision" : 11,
											"architecture" : "x64",
											"modernui" : 1
										}
,
										"classnamespace" : "box",
										"rect" : [ 855.0, 177.0, 551.0, 440.0 ],
										"bglocked" : 0,
										"openinpresentation" : 0,
										"default_fontsize" : 12.0,
										"default_fontface" : 0,
										"default_fontname" : "Arial",
										"gridonopen" : 1,
										"gridsize" : [ 15.0, 15.0 ],
										"gridsnaponopen" : 1,
										"objectsnaponopen" : 1,
										"statusbarvisible" : 2,
										"toolbarvisible" : 1,
										"lefttoolbarpinned" : 0,
										"toptoolbarpinned" : 0,
										"righttoolbarpinned" : 0,
										"bottomtoolbarpinned" : 0,
										"toolbars_unpinned_last_save" : 0,
										"tallnewobj" : 0,
										"boxanimatetime" : 200,
										"enablehscroll" : 1,
										"enablevscroll" : 1,
										"devicewidth" : 0.0,
										"description" : "",
										"digest" : "",
										"tags" : "",
										"style" : "",
										"subpatcher_template" : "",
										"assistshowspatchername" : 0,
										"boxes" : [ 											{
												"box" : 												{
													"id" : "obj-3",
													"maxclass" : "newobj",
													"numinlets" : 0,
													"numoutlets" : 1,
													"outlettype" : [ "" ],
													"patching_rect" : [ 31.0, 121.0, 93.0, 22.0 ],
													"text" : "r sonata_harmo"
												}

											}
, 											{
												"box" : 												{
													"fontname" : "Arial",
													"fontsize" : 12.0,
													"id" : "obj-26",
													"maxclass" : "newobj",
													"numinlets" : 1,
													"numoutlets" : 1,
													"outlettype" : [ "" ],
													"patching_rect" : [ 66.0, 220.0, 41.0, 22.0 ],
													"text" : "dbtoa"
												}

											}
, 											{
												"box" : 												{
													"fontname" : "Arial",
													"fontsize" : 12.0,
													"id" : "obj-25",
													"maxclass" : "message",
													"numinlets" : 2,
													"numoutlets" : 1,
													"outlettype" : [ "" ],
													"patching_rect" : [ 66.0, 247.0, 61.0, 22.0 ],
													"text" : "$1 50 0.5"
												}

											}
, 											{
												"box" : 												{
													"fontname" : "Arial",
													"fontsize" : 12.0,
													"id" : "obj-21",
													"maxclass" : "newobj",
													"numinlets" : 2,
													"numoutlets" : 1,
													"outlettype" : [ "signal" ],
													"patching_rect" : [ 30.0, 337.0, 115.0, 22.0 ],
													"text" : "*~"
												}

											}
, 											{
												"box" : 												{
													"fontname" : "Arial",
													"fontsize" : 12.0,
													"id" : "obj-20",
													"maxclass" : "newobj",
													"numinlets" : 3,
													"numoutlets" : 2,
													"outlettype" : [ "signal", "bang" ],
													"patching_rect" : [ 30.0, 305.0, 47.0, 22.0 ],
													"text" : "curve~"
												}

											}
, 											{
												"box" : 												{
													"fontname" : "Arial",
													"fontsize" : 12.0,
													"id" : "obj-19",
													"maxclass" : "message",
													"numinlets" : 2,
													"numoutlets" : 1,
													"outlettype" : [ "" ],
													"patching_rect" : [ 30.0, 277.0, 58.0, 22.0 ],
													"text" : "0 50 -0.5"
												}

											}
, 											{
												"box" : 												{
													"fontname" : "Arial",
													"fontsize" : 12.0,
													"id" : "obj-16",
													"maxclass" : "newobj",
													"numinlets" : 1,
													"numoutlets" : 2,
													"outlettype" : [ "float", "float" ],
													"patching_rect" : [ 66.0, 190.0, 233.0, 22.0 ],
													"text" : "unpack f f"
												}

											}
, 											{
												"box" : 												{
													"fontname" : "Arial",
													"fontsize" : 12.0,
													"id" : "obj-15",
													"maxclass" : "newobj",
													"numinlets" : 2,
													"numoutlets" : 2,
													"outlettype" : [ "", "" ],
													"patching_rect" : [ 31.0, 162.0, 54.0, 22.0 ],
													"text" : "route off"
												}

											}
, 											{
												"box" : 												{
													"fontname" : "Arial",
													"fontsize" : 12.0,
													"id" : "obj-14",
													"maxclass" : "newobj",
													"numinlets" : 2,
													"numoutlets" : 1,
													"outlettype" : [ "float" ],
													"patching_rect" : [ 280.0, 276.0, 41.0, 22.0 ],
													"text" : "/ 440."
												}

											}
, 											{
												"box" : 												{
													"fontname" : "Arial",
													"fontsize" : 12.0,
													"id" : "obj-13",
													"maxclass" : "newobj",
													"numinlets" : 1,
													"numoutlets" : 1,
													"outlettype" : [ "" ],
													"patching_rect" : [ 280.0, 249.0, 34.0, 22.0 ],
													"text" : "mtof"
												}

											}
, 											{
												"box" : 												{
													"fontname" : "Arial",
													"fontsize" : 12.0,
													"id" : "obj-8",
													"maxclass" : "newobj",
													"numinlets" : 2,
													"numoutlets" : 1,
													"outlettype" : [ "float" ],
													"patching_rect" : [ 280.0, 222.0, 38.0, 22.0 ],
													"text" : "+ 69."
												}

											}
, 											{
												"box" : 												{
													"fontname" : "Arial",
													"fontsize" : 12.0,
													"id" : "obj-1",
													"maxclass" : "newobj",
													"numinlets" : 2,
													"numoutlets" : 1,
													"outlettype" : [ "signal" ],
													"patching_rect" : [ 126.0, 305.0, 173.0, 22.0 ],
													"text" : "pfft~ harmo_inside_pfft 2048 8"
												}

											}
, 											{
												"box" : 												{
													"comment" : "",
													"id" : "obj-12",
													"index" : 1,
													"maxclass" : "outlet",
													"numinlets" : 1,
													"numoutlets" : 0,
													"patching_rect" : [ 30.0, 374.0, 25.0, 25.0 ]
												}

											}
, 											{
												"box" : 												{
													"comment" : "",
													"id" : "obj-2",
													"index" : 1,
													"maxclass" : "inlet",
													"numinlets" : 0,
													"numoutlets" : 1,
													"outlettype" : [ "signal" ],
													"patching_rect" : [ 126.0, 21.0, 25.0, 25.0 ]
												}

											}
 ],
										"lines" : [ 											{
												"patchline" : 												{
													"destination" : [ "obj-21", 1 ],
													"source" : [ "obj-1", 0 ]
												}

											}
, 											{
												"patchline" : 												{
													"destination" : [ "obj-14", 0 ],
													"source" : [ "obj-13", 0 ]
												}

											}
, 											{
												"patchline" : 												{
													"destination" : [ "obj-1", 1 ],
													"source" : [ "obj-14", 0 ]
												}

											}
, 											{
												"patchline" : 												{
													"destination" : [ "obj-16", 0 ],
													"source" : [ "obj-15", 1 ]
												}

											}
, 											{
												"patchline" : 												{
													"destination" : [ "obj-19", 0 ],
													"source" : [ "obj-15", 0 ]
												}

											}
, 											{
												"patchline" : 												{
													"destination" : [ "obj-26", 0 ],
													"source" : [ "obj-16", 0 ]
												}

											}
, 											{
												"patchline" : 												{
													"destination" : [ "obj-8", 0 ],
													"source" : [ "obj-16", 1 ]
												}

											}
, 											{
												"patchline" : 												{
													"destination" : [ "obj-20", 0 ],
													"source" : [ "obj-19", 0 ]
												}

											}
, 											{
												"patchline" : 												{
													"destination" : [ "obj-1", 0 ],
													"source" : [ "obj-2", 0 ]
												}

											}
, 											{
												"patchline" : 												{
													"destination" : [ "obj-21", 0 ],
													"source" : [ "obj-20", 0 ]
												}

											}
, 											{
												"patchline" : 												{
													"destination" : [ "obj-12", 0 ],
													"source" : [ "obj-21", 0 ]
												}

											}
, 											{
												"patchline" : 												{
													"destination" : [ "obj-20", 0 ],
													"midpoints" : [ 75.5, 300.5, 39.5, 300.5 ],
													"source" : [ "obj-25", 0 ]
												}

											}
, 											{
												"patchline" : 												{
													"destination" : [ "obj-25", 0 ],
													"source" : [ "obj-26", 0 ]
												}

											}
, 											{
												"patchline" : 												{
													"destination" : [ "obj-15", 0 ],
													"source" : [ "obj-3", 0 ]
												}

											}
, 											{
												"patchline" : 												{
													"destination" : [ "obj-13", 0 ],
													"source" : [ "obj-8", 0 ]
												}

											}
 ]
									}
,
									"patching_rect" : [ 151.0, 294.0, 55.0, 22.0 ],
									"saved_object_attributes" : 									{
										"description" : "",
										"digest" : "",
										"globalpatchername" : "",
										"tags" : ""
									}
,
									"text" : "p harmo"
								}

							}
, 							{
								"box" : 								{
									"fontname" : "Arial",
									"fontsize" : 12.0,
									"id" : "obj-6",
									"maxclass" : "newobj",
									"numinlets" : 1,
									"numoutlets" : 1,
									"outlettype" : [ "signal" ],
									"patcher" : 									{
										"fileversion" : 1,
										"appversion" : 										{
											"major" : 8,
											"minor" : 1,
											"revision" : 11,
											"architecture" : "x64",
											"modernui" : 1
										}
,
										"classnamespace" : "box",
										"rect" : [ 79.0, 87.0, 573.0, 396.0 ],
										"bglocked" : 0,
										"openinpresentation" : 0,
										"default_fontsize" : 12.0,
										"default_fontface" : 0,
										"default_fontname" : "Arial",
										"gridonopen" : 1,
										"gridsize" : [ 15.0, 15.0 ],
										"gridsnaponopen" : 1,
										"objectsnaponopen" : 1,
										"statusbarvisible" : 2,
										"toolbarvisible" : 1,
										"lefttoolbarpinned" : 0,
										"toptoolbarpinned" : 0,
										"righttoolbarpinned" : 0,
										"bottomtoolbarpinned" : 0,
										"toolbars_unpinned_last_save" : 0,
										"tallnewobj" : 0,
										"boxanimatetime" : 200,
										"enablehscroll" : 1,
										"enablevscroll" : 1,
										"devicewidth" : 0.0,
										"description" : "",
										"digest" : "",
										"tags" : "",
										"style" : "",
										"subpatcher_template" : "",
										"assistshowspatchername" : 0,
										"boxes" : [ 											{
												"box" : 												{
													"id" : "obj-8",
													"maxclass" : "newobj",
													"numinlets" : 0,
													"numoutlets" : 1,
													"outlettype" : [ "" ],
													"patching_rect" : [ 76.0, 41.0, 87.0, 22.0 ],
													"text" : "r sonata_delay"
												}

											}
, 											{
												"box" : 												{
													"fontname" : "Arial",
													"fontsize" : 12.0,
													"id" : "obj-10",
													"maxclass" : "message",
													"numinlets" : 2,
													"numoutlets" : 1,
													"outlettype" : [ "" ],
													"patching_rect" : [ 76.0, 115.0, 37.0, 22.0 ],
													"text" : "clear"
												}

											}
, 											{
												"box" : 												{
													"fontname" : "Arial",
													"fontsize" : 12.0,
													"id" : "obj-1",
													"maxclass" : "newobj",
													"numinlets" : 2,
													"numoutlets" : 2,
													"outlettype" : [ "", "" ],
													"patching_rect" : [ 76.0, 82.0, 80.0, 22.0 ],
													"text" : "route clear"
												}

											}
, 											{
												"box" : 												{
													"comment" : "",
													"id" : "obj-12",
													"index" : 1,
													"maxclass" : "outlet",
													"numinlets" : 1,
													"numoutlets" : 0,
													"patching_rect" : [ 20.0, 371.0, 25.0, 25.0 ]
												}

											}
, 											{
												"box" : 												{
													"fontname" : "Arial",
													"fontsize" : 12.0,
													"id" : "obj-11",
													"maxclass" : "newobj",
													"numinlets" : 2,
													"numoutlets" : 1,
													"outlettype" : [ "float" ],
													"patching_rect" : [ 137.0, 115.0, 32.5, 22.0 ],
													"text" : "/ 3."
												}

											}
, 											{
												"box" : 												{
													"fontname" : "Arial",
													"fontsize" : 12.0,
													"id" : "obj-9",
													"maxclass" : "message",
													"numinlets" : 2,
													"numoutlets" : 1,
													"outlettype" : [ "" ],
													"patching_rect" : [ 137.0, 144.0, 141.0, 22.0 ],
													"text" : "1 $1 0.5 1 $1 0 0 $1 -0.5"
												}

											}
, 											{
												"box" : 												{
													"fontname" : "Arial",
													"fontsize" : 12.0,
													"id" : "obj-7",
													"maxclass" : "newobj",
													"numinlets" : 3,
													"numoutlets" : 2,
													"outlettype" : [ "signal", "bang" ],
													"patching_rect" : [ 137.0, 172.0, 47.0, 22.0 ],
													"text" : "curve~"
												}

											}
, 											{
												"box" : 												{
													"fontname" : "Arial",
													"fontsize" : 12.0,
													"id" : "obj-6",
													"maxclass" : "newobj",
													"numinlets" : 2,
													"numoutlets" : 1,
													"outlettype" : [ "signal" ],
													"patching_rect" : [ 20.0, 198.0, 136.0, 22.0 ],
													"text" : "*~"
												}

											}
, 											{
												"box" : 												{
													"fontname" : "Arial",
													"fontsize" : 12.0,
													"id" : "obj-5",
													"maxclass" : "newobj",
													"numinlets" : 2,
													"numoutlets" : 1,
													"outlettype" : [ "signal" ],
													"patching_rect" : [ 35.0, 316.0, 49.0, 22.0 ],
													"text" : "*~ 0.95"
												}

											}
, 											{
												"box" : 												{
													"fontname" : "Arial",
													"fontsize" : 12.0,
													"id" : "obj-4",
													"maxclass" : "newobj",
													"numinlets" : 1,
													"numoutlets" : 1,
													"outlettype" : [ "signal" ],
													"patching_rect" : [ 20.0, 284.0, 81.0, 22.0 ],
													"text" : "tapout~ 1000"
												}

											}
, 											{
												"box" : 												{
													"fontname" : "Arial",
													"fontsize" : 12.0,
													"id" : "obj-3",
													"maxclass" : "newobj",
													"numinlets" : 1,
													"numoutlets" : 1,
													"outlettype" : [ "tapconnect" ],
													"patching_rect" : [ 20.0, 244.0, 74.0, 22.0 ],
													"text" : "tapin~ 1000"
												}

											}
, 											{
												"box" : 												{
													"comment" : "",
													"id" : "obj-2",
													"index" : 1,
													"maxclass" : "inlet",
													"numinlets" : 0,
													"numoutlets" : 1,
													"outlettype" : [ "signal" ],
													"patching_rect" : [ 20.0, 16.0, 25.0, 25.0 ]
												}

											}
 ],
										"lines" : [ 											{
												"patchline" : 												{
													"destination" : [ "obj-10", 0 ],
													"source" : [ "obj-1", 0 ]
												}

											}
, 											{
												"patchline" : 												{
													"destination" : [ "obj-11", 0 ],
													"source" : [ "obj-1", 1 ]
												}

											}
, 											{
												"patchline" : 												{
													"destination" : [ "obj-3", 0 ],
													"midpoints" : [ 85.5, 224.0, 29.5, 224.0 ],
													"source" : [ "obj-10", 0 ]
												}

											}
, 											{
												"patchline" : 												{
													"destination" : [ "obj-9", 0 ],
													"source" : [ "obj-11", 0 ]
												}

											}
, 											{
												"patchline" : 												{
													"destination" : [ "obj-6", 0 ],
													"source" : [ "obj-2", 0 ]
												}

											}
, 											{
												"patchline" : 												{
													"destination" : [ "obj-4", 0 ],
													"source" : [ "obj-3", 0 ]
												}

											}
, 											{
												"patchline" : 												{
													"destination" : [ "obj-12", 0 ],
													"order" : 1,
													"source" : [ "obj-4", 0 ]
												}

											}
, 											{
												"patchline" : 												{
													"destination" : [ "obj-5", 0 ],
													"order" : 0,
													"source" : [ "obj-4", 0 ]
												}

											}
, 											{
												"patchline" : 												{
													"destination" : [ "obj-3", 0 ],
													"midpoints" : [ 44.5, 347.0, 121.0, 347.0, 121.0, 233.0, 29.5, 233.0 ],
													"source" : [ "obj-5", 0 ]
												}

											}
, 											{
												"patchline" : 												{
													"destination" : [ "obj-3", 0 ],
													"source" : [ "obj-6", 0 ]
												}

											}
, 											{
												"patchline" : 												{
													"destination" : [ "obj-6", 1 ],
													"source" : [ "obj-7", 0 ]
												}

											}
, 											{
												"patchline" : 												{
													"destination" : [ "obj-1", 0 ],
													"source" : [ "obj-8", 0 ]
												}

											}
, 											{
												"patchline" : 												{
													"destination" : [ "obj-7", 0 ],
													"source" : [ "obj-9", 0 ]
												}

											}
 ]
									}
,
									"patching_rect" : [ 13.0, 332.0, 49.0, 22.0 ],
									"saved_object_attributes" : 									{
										"description" : "",
										"digest" : "",
										"globalpatchername" : "",
										"tags" : ""
									}
,
									"text" : "p delay"
								}

							}
 ],
						"lines" : [ 							{
								"patchline" : 								{
									"destination" : [ "obj-6", 0 ],
									"midpoints" : [ 160.5, 322.5, 22.5, 322.5 ],
									"order" : 1,
									"source" : [ "obj-108", 0 ]
								}

							}
, 							{
								"patchline" : 								{
									"destination" : [ "obj-8", 0 ],
									"order" : 0,
									"source" : [ "obj-108", 0 ]
								}

							}
, 							{
								"patchline" : 								{
									"destination" : [ "obj-108", 0 ],
									"midpoints" : [ 22.5, 287.0, 160.5, 287.0 ],
									"order" : 0,
									"source" : [ "obj-116", 0 ]
								}

							}
, 							{
								"patchline" : 								{
									"destination" : [ "obj-6", 0 ],
									"order" : 1,
									"source" : [ "obj-116", 0 ]
								}

							}
, 							{
								"patchline" : 								{
									"destination" : [ "obj-116", 0 ],
									"source" : [ "obj-117", 0 ]
								}

							}
, 							{
								"patchline" : 								{
									"destination" : [ "obj-116", 1 ],
									"source" : [ "obj-118", 0 ]
								}

							}
, 							{
								"patchline" : 								{
									"destination" : [ "obj-119", 0 ],
									"source" : [ "obj-18", 0 ]
								}

							}
, 							{
								"patchline" : 								{
									"destination" : [ "obj-18", 0 ],
									"source" : [ "obj-6", 0 ]
								}

							}
, 							{
								"patchline" : 								{
									"destination" : [ "obj-119", 0 ],
									"midpoints" : [ 160.5, 418.5, 22.5, 418.5 ],
									"source" : [ "obj-8", 0 ]
								}

							}
 ]
					}
,
					"patching_rect" : [ 357.5, 618.0, 120.0, 22.0 ],
					"saved_object_attributes" : 					{
						"description" : "",
						"digest" : "",
						"globalpatchername" : "",
						"tags" : ""
					}
,
					"text" : "p \"action sequencer\""
				}

			}
, 			{
				"box" : 				{
					"fontname" : "Arial",
					"fontsize" : 12.0,
					"id" : "obj-109",
					"maxclass" : "newobj",
					"numinlets" : 2,
					"numoutlets" : 2,
					"outlettype" : [ "", "" ],
					"patching_rect" : [ 779.0, 693.0, 133.0, 22.0 ],
					"text" : "route symbol"
				}

			}
, 			{
				"box" : 				{
					"fontname" : "Arial",
					"fontsize" : 12.0,
					"id" : "obj-85",
					"maxclass" : "comment",
					"numinlets" : 1,
					"numoutlets" : 0,
					"patching_rect" : [ 822.5, 742.0, 46.0, 20.0 ],
					"text" : "Labels"
				}

			}
, 			{
				"box" : 				{
					"fontname" : "Arial",
					"fontsize" : 12.0,
					"id" : "obj-5",
					"maxclass" : "comment",
					"numinlets" : 1,
					"numoutlets" : 0,
					"patching_rect" : [ 682.0, 742.0, 95.0, 20.0 ],
					"text" : "Detected tempo"
				}

			}
, 			{
				"box" : 				{
					"fontname" : "Arial",
					"fontsize" : 12.0,
					"id" : "obj-10",
					"maxclass" : "comment",
					"numinlets" : 1,
					"numoutlets" : 0,
					"patching_rect" : [ 587.0, 742.0, 85.0, 20.0 ],
					"text" : "Event number"
				}

			}
, 			{
				"box" : 				{
					"fontname" : "Arial",
					"fontsize" : 12.0,
					"id" : "obj-75",
					"maxclass" : "newobj",
					"numinlets" : 2,
					"numoutlets" : 3,
					"outlettype" : [ "int", "", "start" ],
					"patcher" : 					{
						"fileversion" : 1,
						"appversion" : 						{
							"major" : 8,
							"minor" : 1,
							"revision" : 11,
							"architecture" : "x64",
							"modernui" : 1
						}
,
						"classnamespace" : "box",
						"rect" : [ 78.0, 87.0, 1021.0, 779.0 ],
						"bglocked" : 0,
						"openinpresentation" : 0,
						"default_fontsize" : 12.0,
						"default_fontface" : 0,
						"default_fontname" : "Arial",
						"gridonopen" : 1,
						"gridsize" : [ 15.0, 15.0 ],
						"gridsnaponopen" : 1,
						"objectsnaponopen" : 1,
						"statusbarvisible" : 2,
						"toolbarvisible" : 1,
						"lefttoolbarpinned" : 0,
						"toptoolbarpinned" : 0,
						"righttoolbarpinned" : 0,
						"bottomtoolbarpinned" : 0,
						"toolbars_unpinned_last_save" : 0,
						"tallnewobj" : 0,
						"boxanimatetime" : 200,
						"enablehscroll" : 1,
						"enablevscroll" : 1,
						"devicewidth" : 0.0,
						"description" : "",
						"digest" : "",
						"tags" : "",
						"style" : "",
						"subpatcher_template" : "",
						"assistshowspatchername" : 0,
						"boxes" : [ 							{
								"box" : 								{
									"fontname" : "Arial",
									"fontsize" : 12.0,
									"id" : "obj-1",
									"maxclass" : "newobj",
									"numinlets" : 1,
									"numoutlets" : 1,
									"outlettype" : [ "" ],
									"patching_rect" : [ 397.0, 165.0, 99.0, 22.0 ],
									"text" : "loadmess suivi 1"
								}

							}
, 							{
								"box" : 								{
									"fontname" : "Arial",
									"fontsize" : 12.0,
									"id" : "obj-2",
									"linecount" : 2,
									"maxclass" : "newobj",
									"numinlets" : 1,
									"numoutlets" : 1,
									"outlettype" : [ "" ],
									"patching_rect" : [ 343.5, 100.0, 582.0, 35.0 ],
									"text" : "loadmess read \"~/Documents/Max 8/Packages/MetaBow-Toolkit/media/Solo_Violin_Sonata_No._1_in_G_Minor_-_J._S._Bach_BWV_1001.txt\""
								}

							}
, 							{
								"box" : 								{
									"fontname" : "Arial",
									"fontsize" : 12.0,
									"id" : "obj-40",
									"maxclass" : "message",
									"numinlets" : 2,
									"numoutlets" : 1,
									"outlettype" : [ "" ],
									"patching_rect" : [ 175.0, 262.0, 32.5, 22.0 ],
									"text" : "0"
								}

							}
, 							{
								"box" : 								{
									"fontname" : "Arial",
									"fontsize" : 12.0,
									"id" : "obj-38",
									"maxclass" : "newobj",
									"numinlets" : 1,
									"numoutlets" : 2,
									"outlettype" : [ "int", "start" ],
									"patching_rect" : [ 50.0, 130.0, 51.0, 22.0 ],
									"text" : "t 1 start"
								}

							}
, 							{
								"box" : 								{
									"fontname" : "Arial",
									"fontsize" : 12.0,
									"id" : "obj-37",
									"maxclass" : "newobj",
									"numinlets" : 1,
									"numoutlets" : 2,
									"outlettype" : [ "int", "stop" ],
									"patching_rect" : [ 99.0, 130.0, 51.0, 22.0 ],
									"text" : "t 0 stop"
								}

							}
, 							{
								"box" : 								{
									"fontname" : "Arial",
									"fontsize" : 12.0,
									"id" : "obj-36",
									"maxclass" : "newobj",
									"numinlets" : 3,
									"numoutlets" : 3,
									"outlettype" : [ "bang", "bang", "" ],
									"patching_rect" : [ 50.0, 100.0, 117.0, 22.0 ],
									"text" : "sel 1 0"
								}

							}
, 							{
								"box" : 								{
									"fontname" : "Arial",
									"fontsize" : 12.0,
									"id" : "obj-24",
									"maxclass" : "newobj",
									"numinlets" : 0,
									"numoutlets" : 1,
									"outlettype" : [ "" ],
									"patching_rect" : [ 263.5, 262.0, 103.0, 22.0 ],
									"text" : "r antescofo-mess"
								}

							}
, 							{
								"box" : 								{
									"fontname" : "Arial",
									"fontsize" : 12.0,
									"id" : "obj-16",
									"linecount" : 2,
									"maxclass" : "newobj",
									"numinlets" : 1,
									"numoutlets" : 1,
									"outlettype" : [ "" ],
									"patching_rect" : [ 145.0, 192.0, 680.0, 35.0 ],
									"text" : "loadmess open \"~/Documents/Max 8/Packages/MetaBow-Toolkit/media/JS_Bach_Sonata_for_Violin_Solo_No_1_in_G_Minor_BWV_1001_1_Adagio_Audio.mp3\""
								}

							}
, 							{
								"box" : 								{
									"comment" : "",
									"id" : "obj-70",
									"index" : 1,
									"maxclass" : "inlet",
									"numinlets" : 0,
									"numoutlets" : 1,
									"outlettype" : [ "int" ],
									"patching_rect" : [ 50.0, 40.0, 25.0, 25.0 ]
								}

							}
, 							{
								"box" : 								{
									"comment" : "",
									"id" : "obj-71",
									"index" : 2,
									"maxclass" : "inlet",
									"numinlets" : 0,
									"numoutlets" : 1,
									"outlettype" : [ "bang" ],
									"patching_rect" : [ 175.0, 40.0, 25.0, 25.0 ]
								}

							}
, 							{
								"box" : 								{
									"comment" : "",
									"id" : "obj-72",
									"index" : 1,
									"maxclass" : "outlet",
									"numinlets" : 1,
									"numoutlets" : 0,
									"patching_rect" : [ 99.0, 340.0, 25.0, 25.0 ]
								}

							}
, 							{
								"box" : 								{
									"comment" : "",
									"id" : "obj-73",
									"index" : 3,
									"maxclass" : "outlet",
									"numinlets" : 1,
									"numoutlets" : 0,
									"patching_rect" : [ 239.25, 340.0, 25.0, 25.0 ]
								}

							}
, 							{
								"box" : 								{
									"comment" : "",
									"id" : "obj-74",
									"index" : 2,
									"maxclass" : "outlet",
									"numinlets" : 1,
									"numoutlets" : 0,
									"patching_rect" : [ 175.0, 340.0, 25.0, 25.0 ]
								}

							}
 ],
						"lines" : [ 							{
								"patchline" : 								{
									"destination" : [ "obj-73", 0 ],
									"midpoints" : [ 406.5, 244.0, 248.75, 244.0 ],
									"source" : [ "obj-1", 0 ]
								}

							}
, 							{
								"patchline" : 								{
									"destination" : [ "obj-72", 0 ],
									"midpoints" : [ 154.5, 322.5, 108.5, 322.5 ],
									"source" : [ "obj-16", 0 ]
								}

							}
, 							{
								"patchline" : 								{
									"destination" : [ "obj-73", 0 ],
									"midpoints" : [ 353.0, 243.0, 248.75, 243.0 ],
									"source" : [ "obj-2", 0 ]
								}

							}
, 							{
								"patchline" : 								{
									"destination" : [ "obj-73", 0 ],
									"midpoints" : [ 273.0, 297.5, 248.75, 297.5 ],
									"source" : [ "obj-24", 0 ]
								}

							}
, 							{
								"patchline" : 								{
									"destination" : [ "obj-37", 0 ],
									"source" : [ "obj-36", 1 ]
								}

							}
, 							{
								"patchline" : 								{
									"destination" : [ "obj-38", 0 ],
									"source" : [ "obj-36", 0 ]
								}

							}
, 							{
								"patchline" : 								{
									"destination" : [ "obj-72", 0 ],
									"source" : [ "obj-37", 0 ]
								}

							}
, 							{
								"patchline" : 								{
									"destination" : [ "obj-73", 0 ],
									"midpoints" : [ 140.5, 244.5, 248.75, 244.5 ],
									"source" : [ "obj-37", 1 ]
								}

							}
, 							{
								"patchline" : 								{
									"destination" : [ "obj-72", 0 ],
									"midpoints" : [ 59.5, 322.5, 108.5, 322.5 ],
									"source" : [ "obj-38", 0 ]
								}

							}
, 							{
								"patchline" : 								{
									"destination" : [ "obj-73", 0 ],
									"midpoints" : [ 91.5, 244.5, 248.75, 244.5 ],
									"source" : [ "obj-38", 1 ]
								}

							}
, 							{
								"patchline" : 								{
									"destination" : [ "obj-74", 0 ],
									"source" : [ "obj-40", 0 ]
								}

							}
, 							{
								"patchline" : 								{
									"destination" : [ "obj-36", 0 ],
									"source" : [ "obj-70", 0 ]
								}

							}
, 							{
								"patchline" : 								{
									"destination" : [ "obj-40", 0 ],
									"source" : [ "obj-71", 0 ]
								}

							}
 ]
					}
,
					"patching_rect" : [ 415.0, 528.0, 148.5, 22.0 ],
					"saved_object_attributes" : 					{
						"description" : "",
						"digest" : "",
						"globalpatchername" : "",
						"tags" : ""
					}
,
					"text" : "p \"loader and transport\""
				}

			}
, 			{
				"box" : 				{
					"bgcolor" : [ 1.0, 1.0, 0.0, 1.0 ],
					"fontname" : "Arial",
					"fontsize" : 18.0,
					"format" : 6,
					"htricolor" : [ 0.87, 0.82, 0.24, 1.0 ],
					"id" : "obj-44",
					"maxclass" : "flonum",
					"numinlets" : 1,
					"numoutlets" : 2,
					"outlettype" : [ "", "bang" ],
					"parameter_enable" : 0,
					"patching_rect" : [ 693.0, 735.0, 73.0, 29.0 ],
					"textcolor" : [ 0.0, 0.0, 0.0, 1.0 ],
					"tricolor" : [ 0.75, 0.75, 0.75, 1.0 ]
				}

			}
, 			{
				"box" : 				{
					"bgcolor" : [ 1.0, 1.0, 0.0, 1.0 ],
					"bgfillcolor_autogradient" : 0.79,
					"bgfillcolor_color" : [ 0.2, 0.2, 0.2, 1 ],
					"bgfillcolor_color1" : [ 1.0, 1.0, 0.0, 1.0 ],
					"bgfillcolor_color2" : [ 0.685, 0.685, 0.685, 1.0 ],
					"bgfillcolor_type" : "gradient",
					"fontname" : "Arial",
					"fontsize" : 18.0,
					"gradient" : 0,
					"id" : "obj-12",
					"linecount" : 6,
					"maxclass" : "message",
					"numinlets" : 2,
					"numoutlets" : 1,
					"outlettype" : [ "" ],
					"patching_rect" : [ 604.0, 735.0, 54.0, 129.0 ],
					"text" : "calibration 0.778547 0. 0. 0.",
					"textcolor" : [ 0.0, 0.0, 0.0, 1.0 ]
				}

			}
, 			{
				"box" : 				{
					"fontname" : "Arial",
					"fontsize" : 12.0,
					"id" : "obj-14",
					"maxclass" : "tab",
					"numinlets" : 1,
					"numoutlets" : 3,
					"outlettype" : [ "int", "", "" ],
					"parameter_enable" : 0,
					"patching_rect" : [ 415.0, 495.0, 99.0, 20.0 ],
					"tabs" : [ "Stop", "Play" ]
				}

			}
, 			{
				"box" : 				{
					"bgcolor" : [ 1.0, 1.0, 0.0, 1.0 ],
					"bgfillcolor_autogradient" : 0.79,
					"bgfillcolor_color" : [ 0.2, 0.2, 0.2, 1 ],
					"bgfillcolor_color1" : [ 1.0, 1.0, 0.0, 1.0 ],
					"bgfillcolor_color2" : [ 0.685, 0.685, 0.685, 1.0 ],
					"bgfillcolor_type" : "gradient",
					"fontname" : "Arial",
					"fontsize" : 18.0,
					"gradient" : 0,
					"id" : "obj-15",
					"maxclass" : "message",
					"numinlets" : 2,
					"numoutlets" : 1,
					"outlettype" : [ "" ],
					"patching_rect" : [ 779.0, 735.0, 133.0, 29.0 ],
					"text" : "measure3",
					"textcolor" : [ 0.0, 0.0, 0.0, 1.0 ]
				}

			}
, 			{
				"box" : 				{
					"bgcolor" : [ 0.450980392156863, 0.776470588235294, 0.713725490196078, 0.0 ],
					"bubble" : 1,
					"bubblepoint" : 0.4,
					"bubbleside" : 2,
					"bubbleusescolors" : 1,
					"fontname" : "Arial",
					"fontsize" : 12.0,
					"id" : "obj-16",
					"linecount" : 4,
					"maxclass" : "comment",
					"numinlets" : 1,
					"numoutlets" : 0,
					"patching_rect" : [ 652.0, 580.5, 276.0, 79.0 ],
					"text" : "If you're curious to see how the score looks like, double-click on the Antescofo object.\nIt will open AscoGraph (The Antescofo text and visual editor)."
				}

			}
, 			{
				"box" : 				{
					"id" : "obj-19",
					"maxclass" : "ezdac~",
					"numinlets" : 2,
					"numoutlets" : 0,
					"patching_rect" : [ 357.5, 813.0, 45.0, 45.0 ]
				}

			}
, 			{
				"box" : 				{
					"id" : "obj-24",
					"lastchannelcount" : 0,
					"maxclass" : "live.gain~",
					"numinlets" : 2,
					"numoutlets" : 5,
					"orientation" : 1,
					"outlettype" : [ "signal", "signal", "", "float", "list" ],
					"parameter_enable" : 1,
					"patching_rect" : [ 357.5, 742.0, 136.0, 47.0 ],
					"saved_attribute_attributes" : 					{
						"valueof" : 						{
							"parameter_initial" : [ 0.0 ],
							"parameter_longname" : "live.gain~[3]",
							"parameter_mmax" : 6.0,
							"parameter_mmin" : -70.0,
							"parameter_shortname" : "live.gain~",
							"parameter_type" : 0,
							"parameter_unitstyle" : 4
						}

					}
,
					"varname" : "live.gain~[1]"
				}

			}
, 			{
				"box" : 				{
					"fontname" : "Arial",
					"fontsize" : 12.0,
					"id" : "obj-37",
					"maxclass" : "newobj",
					"numinlets" : 2,
					"numoutlets" : 2,
					"outlettype" : [ "signal", "bang" ],
					"patching_rect" : [ 475.0, 572.0, 49.0, 22.0 ],
					"saved_object_attributes" : 					{
						"basictuning" : 440,
						"followglobaltempo" : 0,
						"formantcorrection" : 0,
						"mode" : "basic",
						"originallength" : [ 274916.832653061195742, "ticks" ],
						"originaltempo" : 119.999999999999986,
						"pitchcorrection" : 0,
						"quality" : "basic",
						"timestretch" : [ 0 ]
					}
,
					"text" : "sfplay~"
				}

			}
, 			{
				"box" : 				{
					"color" : [ 1.0, 0.0, 0.0, 1.0 ],
					"fontname" : "Arial",
					"fontsize" : 12.0,
					"id" : "obj-1",
					"maxclass" : "newobj",
					"numinlets" : 1,
					"numoutlets" : 4,
					"outlettype" : [ "", "float", "symbol", "bang" ],
					"patching_rect" : [ 605.5, 666.0, 281.5, 22.0 ],
					"saved_object_attributes" : 					{
						"IncomingOscPort" : 5678,
						"Warning" : 1,
						"ascograph_height" : 768,
						"ascograph_width" : 1024,
						"ascographconf" : [ "localhost", 6789 ],
						"ascographpanel" : 1,
						"ascographpos" : [ 100, 100 ],
						"incomingosc" : 1
					}
,
					"text" : "antescofo~"
				}

			}
, 			{
				"box" : 				{
					"fontname" : "Lato",
					"fontsize" : 24.0,
					"id" : "obj-83",
					"maxclass" : "comment",
					"numinlets" : 1,
					"numoutlets" : 0,
					"patching_rect" : [ 945.0, 144.0, 236.0, 35.0 ],
					"presentation" : 1,
					"presentation_rect" : [ 30.0, 30.0, 446.0, 35.0 ],
					"text" : "Explanation"
				}

			}
, 			{
				"box" : 				{
					"id" : "obj-82",
					"justification" : 1,
					"linecolor" : [ 0.352941176470588, 0.352941176470588, 0.352941176470588, 0.43 ],
					"maxclass" : "live.line",
					"numinlets" : 1,
					"numoutlets" : 0,
					"patching_rect" : [ 930.0, 120.0, 5.0, 738.0 ]
				}

			}
, 			{
				"box" : 				{
					"fontname" : "Lato",
					"id" : "obj-81",
					"linecount" : 6,
					"maxclass" : "comment",
					"numinlets" : 1,
					"numoutlets" : 0,
					"patching_rect" : [ 945.0, 185.5, 399.0, 93.0 ],
					"text" : "We can use both the \"likelihood\" to calculate the balance between different statically recognised \"poses\" or \"gestures\".\n\nIn this example, you will record two different gestures and train a mubu.gmm object to recognise which gesture is being played and how confident it is which gesture it is (\"likelihood\"). The likelihood controls ..."
				}

			}
, 			{
				"box" : 				{
					"color" : [ 0.0, 1.0, 0.513725490196078, 1.0 ],
					"id" : "obj-27",
					"maxclass" : "newobj",
					"numinlets" : 1,
					"numoutlets" : 0,
					"patching_rect" : [ 15.0, 720.0, 158.0, 22.0 ],
					"text" : "s static_gesture_recognition",
					"textcolor" : [ 1.0, 1.0, 1.0, 1.0 ]
				}

			}
, 			{
				"box" : 				{
					"id" : "obj-26",
					"maxclass" : "message",
					"numinlets" : 2,
					"numoutlets" : 1,
					"outlettype" : [ "" ],
					"patching_rect" : [ 240.0, 142.0, 69.0, 22.0 ],
					"text" : "mode learn"
				}

			}
, 			{
				"box" : 				{
					"id" : "obj-23",
					"maxclass" : "newobj",
					"numinlets" : 1,
					"numoutlets" : 1,
					"outlettype" : [ "bang" ],
					"patching_rect" : [ 105.0, 142.0, 58.0, 22.0 ],
					"text" : "loadbang"
				}

			}
, 			{
				"box" : 				{
					"id" : "obj-17",
					"maxclass" : "message",
					"numinlets" : 2,
					"numoutlets" : 1,
					"outlettype" : [ "" ],
					"patching_rect" : [ 105.0, 180.0, 126.0, 22.0 ],
					"text" : "smoothing 11, mode 1"
				}

			}
, 			{
				"box" : 				{
					"arrows" : 1,
					"id" : "obj-9",
					"justification" : 1,
					"maxclass" : "live.line",
					"numinlets" : 1,
					"numoutlets" : 0,
					"patching_rect" : [ 607.625, 190.25, 163.75, 10.0 ]
				}

			}
, 			{
				"box" : 				{
					"arrows" : 1,
					"id" : "obj-8",
					"justification" : 1,
					"maxclass" : "live.line",
					"numinlets" : 1,
					"numoutlets" : 0,
					"patching_rect" : [ 758.5, 204.5, 12.875, 55.75 ]
				}

			}
, 			{
				"box" : 				{
					"arrows" : 2,
					"id" : "obj-6",
					"justification" : 1,
					"maxclass" : "live.line",
					"numinlets" : 1,
					"numoutlets" : 0,
					"patching_rect" : [ 712.625, 249.0, 43.875, 11.25 ]
				}

			}
, 			{
				"box" : 				{
					"id" : "obj-49",
					"maxclass" : "comment",
					"numinlets" : 1,
					"numoutlets" : 0,
					"patching_rect" : [ 437.0, 452.0, 210.0, 20.0 ],
					"text" : "Start playing the score"
				}

			}
, 			{
				"box" : 				{
					"bgcolor" : [ 1.0, 0.788235, 0.470588, 1.0 ],
					"fontname" : "Arial Bold",
					"hint" : "",
					"id" : "obj-50",
					"ignoreclick" : 1,
					"legacytextcolor" : 1,
					"maxclass" : "textbutton",
					"numinlets" : 1,
					"numoutlets" : 3,
					"outlettype" : [ "", "", "int" ],
					"parameter_enable" : 0,
					"patching_rect" : [ 415.0, 452.0, 20.0, 20.0 ],
					"rounded" : 60.0,
					"text" : "6",
					"textcolor" : [ 0.34902, 0.34902, 0.34902, 1.0 ]
				}

			}
, 			{
				"box" : 				{
					"id" : "obj-48",
					"maxclass" : "message",
					"numinlets" : 2,
					"numoutlets" : 1,
					"outlettype" : [ "" ],
					"patching_rect" : [ 492.625, 364.5, 64.0, 22.0 ],
					"text" : "mode play"
				}

			}
, 			{
				"box" : 				{
					"id" : "obj-45",
					"linecount" : 3,
					"maxclass" : "comment",
					"numinlets" : 1,
					"numoutlets" : 0,
					"patching_rect" : [ 583.625, 351.0, 210.0, 47.0 ],
					"text" : "Enter the play mode where incoming gestures are recognised against the ones it has just been trained with"
				}

			}
, 			{
				"box" : 				{
					"bgcolor" : [ 1.0, 0.788235, 0.470588, 1.0 ],
					"fontname" : "Arial Bold",
					"hint" : "",
					"id" : "obj-46",
					"ignoreclick" : 1,
					"legacytextcolor" : 1,
					"maxclass" : "textbutton",
					"numinlets" : 1,
					"numoutlets" : 3,
					"outlettype" : [ "", "", "int" ],
					"parameter_enable" : 0,
					"patching_rect" : [ 561.625, 364.5, 20.0, 20.0 ],
					"rounded" : 60.0,
					"text" : "5",
					"textcolor" : [ 0.34902, 0.34902, 0.34902, 1.0 ]
				}

			}
, 			{
				"box" : 				{
					"id" : "obj-41",
					"maxclass" : "message",
					"numinlets" : 2,
					"numoutlets" : 1,
					"outlettype" : [ "" ],
					"patching_rect" : [ 492.625, 315.0, 32.0, 22.0 ],
					"text" : "train"
				}

			}
, 			{
				"box" : 				{
					"id" : "obj-35",
					"maxclass" : "comment",
					"numinlets" : 1,
					"numoutlets" : 0,
					"patching_rect" : [ 549.5, 316.0, 210.0, 20.0 ],
					"text" : "'train' the static gesture recognition"
				}

			}
, 			{
				"box" : 				{
					"bgcolor" : [ 1.0, 0.788235, 0.470588, 1.0 ],
					"fontname" : "Arial Bold",
					"hint" : "",
					"id" : "obj-36",
					"ignoreclick" : 1,
					"legacytextcolor" : 1,
					"maxclass" : "textbutton",
					"numinlets" : 1,
					"numoutlets" : 3,
					"outlettype" : [ "", "", "int" ],
					"parameter_enable" : 0,
					"patching_rect" : [ 527.5, 315.0, 20.0, 20.0 ],
					"rounded" : 60.0,
					"text" : "4",
					"textcolor" : [ 0.34902, 0.34902, 0.34902, 1.0 ]
				}

			}
, 			{
				"box" : 				{
					"id" : "obj-33",
					"linecount" : 4,
					"maxclass" : "comment",
					"numinlets" : 1,
					"numoutlets" : 0,
					"patching_rect" : [ 524.5, 225.75, 189.0, 60.0 ],
					"text" : "Toggle the record to 1 and perform a relatively static gesture or hold a bow position. When you are done stop recording"
				}

			}
, 			{
				"box" : 				{
					"bgcolor" : [ 1.0, 0.788235, 0.470588, 1.0 ],
					"fontname" : "Arial Bold",
					"hint" : "",
					"id" : "obj-34",
					"ignoreclick" : 1,
					"legacytextcolor" : 1,
					"maxclass" : "textbutton",
					"numinlets" : 1,
					"numoutlets" : 3,
					"outlettype" : [ "", "", "int" ],
					"parameter_enable" : 0,
					"patching_rect" : [ 498.625, 245.75, 20.0, 20.0 ],
					"rounded" : 60.0,
					"text" : "3",
					"textcolor" : [ 0.34902, 0.34902, 0.34902, 1.0 ]
				}

			}
, 			{
				"box" : 				{
					"id" : "obj-31",
					"linecount" : 2,
					"maxclass" : "comment",
					"numinlets" : 1,
					"numoutlets" : 0,
					"patching_rect" : [ 453.0, 183.75, 150.0, 33.0 ],
					"text" : "Select which gesture you want to record to."
				}

			}
, 			{
				"box" : 				{
					"bgcolor" : [ 1.0, 0.788235, 0.470588, 1.0 ],
					"fontname" : "Arial Bold",
					"hint" : "",
					"id" : "obj-32",
					"ignoreclick" : 1,
					"legacytextcolor" : 1,
					"maxclass" : "textbutton",
					"numinlets" : 1,
					"numoutlets" : 3,
					"outlettype" : [ "", "", "int" ],
					"parameter_enable" : 0,
					"patching_rect" : [ 431.0, 190.25, 20.0, 20.0 ],
					"rounded" : 60.0,
					"text" : "2",
					"textcolor" : [ 0.34902, 0.34902, 0.34902, 1.0 ]
				}

			}
, 			{
				"box" : 				{
					"id" : "obj-28",
					"maxclass" : "comment",
					"numinlets" : 1,
					"numoutlets" : 0,
					"patching_rect" : [ 329.5, 144.0, 281.0, 20.0 ],
					"text" : "Set the mode to 'learn' for recording your gestures."
				}

			}
, 			{
				"box" : 				{
					"bgcolor" : [ 1.0, 0.788235, 0.470588, 1.0 ],
					"fontname" : "Arial Bold",
					"hint" : "",
					"id" : "obj-52",
					"ignoreclick" : 1,
					"legacytextcolor" : 1,
					"maxclass" : "textbutton",
					"numinlets" : 1,
					"numoutlets" : 3,
					"outlettype" : [ "", "", "int" ],
					"parameter_enable" : 0,
					"patching_rect" : [ 311.5, 142.0, 20.0, 20.0 ],
					"rounded" : 60.0,
					"text" : "1",
					"textcolor" : [ 0.34902, 0.34902, 0.34902, 1.0 ]
				}

			}
, 			{
				"box" : 				{
					"id" : "obj-25",
					"maxclass" : "live.tab",
					"multiline" : 0,
					"num_lines_patching" : 1,
					"num_lines_presentation" : 1,
					"numinlets" : 1,
					"numoutlets" : 3,
					"outlettype" : [ "", "", "float" ],
					"parameter_enable" : 1,
					"patching_rect" : [ 324.0, 185.5, 105.0, 29.5 ],
					"saved_attribute_attributes" : 					{
						"valueof" : 						{
							"parameter_enum" : [ "gesture 1", "gesture 2" ],
							"parameter_longname" : "live.tab[4]",
							"parameter_mmax" : 1,
							"parameter_shortname" : "live.tab[3]",
							"parameter_type" : 2,
							"parameter_unitstyle" : 9
						}

					}
,
					"varname" : "live.tab[1]"
				}

			}
, 			{
				"box" : 				{
					"id" : "obj-20",
					"maxclass" : "message",
					"numinlets" : 2,
					"numoutlets" : 1,
					"outlettype" : [ "" ],
					"patching_rect" : [ 324.0, 229.5, 84.0, 22.0 ],
					"text" : "bufferindex $1"
				}

			}
, 			{
				"box" : 				{
					"id" : "obj-13",
					"maxclass" : "message",
					"numinlets" : 2,
					"numoutlets" : 1,
					"outlettype" : [ "" ],
					"patching_rect" : [ 459.625, 279.75, 59.0, 22.0 ],
					"text" : "record $1"
				}

			}
, 			{
				"box" : 				{
					"id" : "obj-11",
					"maxclass" : "toggle",
					"numinlets" : 1,
					"numoutlets" : 1,
					"outlettype" : [ "int" ],
					"parameter_enable" : 0,
					"patching_rect" : [ 459.625, 241.75, 24.0, 24.0 ]
				}

			}
, 			{
				"box" : 				{
					"bgmode" : 0,
					"border" : 1,
					"clickthrough" : 0,
					"enablehscroll" : 0,
					"enablevscroll" : 0,
					"id" : "obj-7",
					"lockeddragscroll" : 0,
					"maxclass" : "bpatcher",
					"name" : "mb.static.maxpat",
					"numinlets" : 1,
					"numoutlets" : 1,
					"offset" : [ 0.0, 0.0 ],
					"outlettype" : [ "" ],
					"patching_rect" : [ 15.0, 450.0, 315.0, 255.0 ],
					"viewvisibility" : 1
				}

			}
, 			{
				"box" : 				{
					"id" : "obj-42",
					"maxclass" : "newobj",
					"numinlets" : 1,
					"numoutlets" : 1,
					"outlettype" : [ "" ],
					"patching_rect" : [ 15.0, 142.0, 80.0, 22.0 ],
					"text" : "mb.sensortile",
					"varname" : "mb.bitalino"
				}

			}
, 			{
				"box" : 				{
					"id" : "obj-38",
					"maxclass" : "newobj",
					"numinlets" : 1,
					"numoutlets" : 1,
					"outlettype" : [ "" ],
					"patching_rect" : [ 15.0, 234.0, 57.0, 22.0 ],
					"text" : "mb.accel"
				}

			}
, 			{
				"box" : 				{
					"id" : "obj-3",
					"justification" : 1,
					"linecolor" : [ 0.352941176470588, 0.352941176470588, 0.352941176470588, 0.5 ],
					"maxclass" : "live.line",
					"numinlets" : 1,
					"numoutlets" : 0,
					"patching_rect" : [ 15.0, 120.0, 630.0, 10.0 ]
				}

			}
, 			{
				"box" : 				{
					"fontname" : "Lato",
					"fontsize" : 13.0,
					"id" : "obj-4",
					"linecount" : 2,
					"maxclass" : "comment",
					"numinlets" : 1,
					"numoutlets" : 0,
					"patching_rect" : [ 15.0, 62.0, 631.0, 38.0 ],
					"text" : "Based on State To Sound example, the following patch demonstrates how you can use the mb.static abstraction in conjuction with Antescofo. The likelihood value can be used to add treatments to the score."
				}

			}
, 			{
				"box" : 				{
					"fontname" : "Lato",
					"fontsize" : 32.0,
					"id" : "obj-2",
					"maxclass" : "comment",
					"numinlets" : 1,
					"numoutlets" : 0,
					"patching_rect" : [ 15.0, 15.0, 525.0, 45.0 ],
					"presentation" : 1,
					"presentation_linecount" : 2,
					"presentation_rect" : [ 15.0, 15.0, 387.0, 83.0 ],
					"text" : "MetaBow Example - Score Following"
				}

			}
 ],
		"lines" : [ 			{
				"patchline" : 				{
					"destination" : [ "obj-109", 0 ],
					"midpoints" : [ 790.0, 691.5, 788.5, 691.5 ],
					"source" : [ "obj-1", 2 ]
				}

			}
, 			{
				"patchline" : 				{
					"destination" : [ "obj-12", 1 ],
					"midpoints" : [ 615.0, 691.5, 648.5, 691.5 ],
					"source" : [ "obj-1", 0 ]
				}

			}
, 			{
				"patchline" : 				{
					"destination" : [ "obj-44", 0 ],
					"source" : [ "obj-1", 1 ]
				}

			}
, 			{
				"patchline" : 				{
					"destination" : [ "obj-15", 1 ],
					"source" : [ "obj-109", 1 ]
				}

			}
, 			{
				"patchline" : 				{
					"destination" : [ "obj-15", 1 ],
					"midpoints" : [ 788.5, 722.5, 902.5, 722.5 ],
					"source" : [ "obj-109", 0 ]
				}

			}
, 			{
				"patchline" : 				{
					"destination" : [ "obj-13", 0 ],
					"source" : [ "obj-11", 0 ]
				}

			}
, 			{
				"patchline" : 				{
					"destination" : [ "obj-18", 0 ],
					"source" : [ "obj-120", 0 ]
				}

			}
, 			{
				"patchline" : 				{
					"destination" : [ "obj-122", 0 ],
					"hidden" : 1,
					"source" : [ "obj-121", 0 ]
				}

			}
, 			{
				"patchline" : 				{
					"destination" : [ "obj-19", 0 ],
					"hidden" : 1,
					"midpoints" : [ 255.0, 808.0, 367.0, 808.0 ],
					"source" : [ "obj-122", 0 ]
				}

			}
, 			{
				"patchline" : 				{
					"destination" : [ "obj-7", 0 ],
					"midpoints" : [ 469.125, 435.0, 24.5, 435.0 ],
					"source" : [ "obj-13", 0 ]
				}

			}
, 			{
				"patchline" : 				{
					"destination" : [ "obj-75", 0 ],
					"source" : [ "obj-14", 0 ]
				}

			}
, 			{
				"patchline" : 				{
					"destination" : [ "obj-38", 0 ],
					"midpoints" : [ 114.5, 219.0, 24.5, 219.0 ],
					"source" : [ "obj-17", 0 ]
				}

			}
, 			{
				"patchline" : 				{
					"destination" : [ "obj-24", 0 ],
					"source" : [ "obj-18", 0 ]
				}

			}
, 			{
				"patchline" : 				{
					"destination" : [ "obj-7", 0 ],
					"midpoints" : [ 333.5, 435.0, 24.5, 435.0 ],
					"source" : [ "obj-20", 0 ]
				}

			}
, 			{
				"patchline" : 				{
					"destination" : [ "obj-17", 0 ],
					"source" : [ "obj-23", 0 ]
				}

			}
, 			{
				"patchline" : 				{
					"destination" : [ "obj-19", 1 ],
					"order" : 0,
					"source" : [ "obj-24", 0 ]
				}

			}
, 			{
				"patchline" : 				{
					"destination" : [ "obj-19", 0 ],
					"order" : 1,
					"source" : [ "obj-24", 0 ]
				}

			}
, 			{
				"patchline" : 				{
					"destination" : [ "obj-20", 0 ],
					"source" : [ "obj-25", 0 ]
				}

			}
, 			{
				"patchline" : 				{
					"destination" : [ "obj-7", 0 ],
					"midpoints" : [ 249.5, 435.0, 24.5, 435.0 ],
					"source" : [ "obj-26", 0 ]
				}

			}
, 			{
				"patchline" : 				{
					"destination" : [ "obj-1", 0 ],
					"midpoints" : [ 484.5, 610.0, 615.0, 610.0 ],
					"order" : 0,
					"source" : [ "obj-37", 0 ]
				}

			}
, 			{
				"patchline" : 				{
					"destination" : [ "obj-120", 0 ],
					"midpoints" : [ 484.5, 609.5, 367.0, 609.5 ],
					"order" : 2,
					"source" : [ "obj-37", 0 ]
				}

			}
, 			{
				"patchline" : 				{
					"destination" : [ "obj-18", 1 ],
					"order" : 1,
					"source" : [ "obj-37", 0 ]
				}

			}
, 			{
				"patchline" : 				{
					"destination" : [ "obj-75", 1 ],
					"midpoints" : [ 514.5, 600.0, 570.25, 600.0, 570.25, 519.0, 554.0, 519.0 ],
					"source" : [ "obj-37", 1 ]
				}

			}
, 			{
				"patchline" : 				{
					"destination" : [ "obj-7", 0 ],
					"source" : [ "obj-38", 0 ]
				}

			}
, 			{
				"patchline" : 				{
					"destination" : [ "obj-18", 2 ],
					"source" : [ "obj-39", 0 ]
				}

			}
, 			{
				"patchline" : 				{
					"destination" : [ "obj-7", 0 ],
					"midpoints" : [ 502.125, 351.0, 24.5, 351.0 ],
					"source" : [ "obj-41", 0 ]
				}

			}
, 			{
				"patchline" : 				{
					"destination" : [ "obj-38", 0 ],
					"midpoints" : [ 24.5, 165.0, 24.5, 165.0 ],
					"source" : [ "obj-42", 0 ]
				}

			}
, 			{
				"patchline" : 				{
					"destination" : [ "obj-7", 0 ],
					"midpoints" : [ 502.125, 435.0, 24.5, 435.0 ],
					"source" : [ "obj-48", 0 ]
				}

			}
, 			{
				"patchline" : 				{
					"destination" : [ "obj-12", 0 ],
					"hidden" : 1,
					"midpoints" : [ 943.5, 729.0, 613.5, 729.0 ],
					"order" : 1,
					"source" : [ "obj-56", 0 ]
				}

			}
, 			{
				"patchline" : 				{
					"destination" : [ "obj-15", 0 ],
					"hidden" : 1,
					"midpoints" : [ 943.5, 729.0, 788.5, 729.0 ],
					"order" : 0,
					"source" : [ "obj-56", 0 ]
				}

			}
, 			{
				"patchline" : 				{
					"destination" : [ "obj-27", 0 ],
					"source" : [ "obj-7", 0 ]
				}

			}
, 			{
				"patchline" : 				{
					"destination" : [ "obj-1", 0 ],
					"midpoints" : [ 554.0, 566.5, 615.0, 566.5 ],
					"source" : [ "obj-75", 2 ]
				}

			}
, 			{
				"patchline" : 				{
					"destination" : [ "obj-14", 0 ],
					"midpoints" : [ 489.25, 557.0, 404.125, 557.0, 404.125, 485.0, 424.5, 485.0 ],
					"source" : [ "obj-75", 1 ]
				}

			}
, 			{
				"patchline" : 				{
					"destination" : [ "obj-37", 0 ],
					"source" : [ "obj-75", 0 ]
				}

			}
 ],
		"parameters" : 		{
			"obj-120::obj-18" : [ "live.gain~[1]", "live.gain~", 0 ],
			"obj-120::obj-8" : [ "live.gain~[2]", "live.gain~", 0 ],
			"obj-24" : [ "live.gain~[3]", "live.gain~", 0 ],
			"obj-25" : [ "live.tab[4]", "live.tab[3]", 0 ],
			"obj-38::obj-3::obj-15" : [ "live.dial", "Smoothing", 0 ],
			"obj-38::obj-3::obj-3" : [ "live.tab[2]", "live.tab", 0 ],
			"obj-42::obj-1" : [ "live.numbox[5]", "live.numbox[5]", 0 ],
			"obj-42::obj-11" : [ "live.tab[6]", "live.tab[1]", 0 ],
			"obj-42::obj-15" : [ "live.numbox[6]", "live.numbox[5]", 0 ],
			"obj-42::obj-16" : [ "live.numbox[15]", "live.numbox", 0 ],
			"obj-42::obj-17" : [ "live.text[5]", "live.text[1]", 0 ],
			"obj-7::obj-17" : [ "live.text[1]", "live.text[1]", 0 ],
			"obj-7::obj-78" : [ "live.text[2]", "live.text[2]", 0 ],
			"obj-7::obj-79" : [ "live.text[3]", "live.text[2]", 0 ],
			"obj-7::obj-8" : [ "live.text", "live.text", 0 ],
			"obj-7::obj-91" : [ "live.tab", "live.tab", 0 ],
			"parameterbanks" : 			{

			}
,
			"parameter_overrides" : 			{
				"obj-38::obj-3::obj-15" : 				{
					"parameter_longname" : "live.dial"
				}
,
				"obj-38::obj-3::obj-3" : 				{
					"parameter_longname" : "live.tab[2]"
				}
,
				"obj-42::obj-11" : 				{
					"parameter_longname" : "live.tab[6]"
				}
,
				"obj-42::obj-16" : 				{
					"parameter_longname" : "live.numbox[15]"
				}
,
				"obj-42::obj-17" : 				{
					"parameter_longname" : "live.text[5]"
				}
,
				"obj-7::obj-91" : 				{
					"parameter_invisible" : 0,
					"parameter_modmode" : 0,
					"parameter_range" : [ "0", "1" ],
					"parameter_type" : 2,
					"parameter_unitstyle" : 9
				}

			}
,
			"inherited_shortname" : 1
		}
,
		"dependency_cache" : [ 			{
				"name" : "mb.accel.maxpat",
				"bootpath" : "~/Documents/Max 8/Packages/MetaBow-Toolkit/misc",
				"patcherrelativepath" : "../../misc",
				"type" : "JSON",
				"implicit" : 1
			}
, 			{
				"name" : "mb.subsmoother.maxpat",
				"bootpath" : "~/Documents/Max 8/Packages/MetaBow-Toolkit/misc",
				"patcherrelativepath" : "../../misc",
				"type" : "JSON",
				"implicit" : 1
			}
, 			{
				"name" : "mb.subsmoother.js",
				"bootpath" : "~/Documents/Max 8/Packages/MetaBow-Toolkit/misc",
				"patcherrelativepath" : "../../misc",
				"type" : "TEXT",
				"implicit" : 1
			}
, 			{
				"name" : "mb.sensortile.maxpat",
				"bootpath" : "~/Documents/Max 8/Packages/MetaBow-Toolkit/misc",
				"patcherrelativepath" : "../../misc",
				"type" : "JSON",
				"implicit" : 1
			}
, 			{
				"name" : "mb.static.maxpat",
				"bootpath" : "~/Documents/Max 8/Packages/MetaBow-Toolkit/misc",
				"patcherrelativepath" : "../../misc",
				"type" : "JSON",
				"implicit" : 1
			}
, 			{
				"name" : "mb.static.js",
				"bootpath" : "~/Documents/Max 8/Packages/MetaBow-Toolkit/misc",
				"patcherrelativepath" : "../../misc",
				"type" : "TEXT",
				"implicit" : 1
			}
, 			{
				"name" : "harmo_inside_pfft.maxpat",
				"bootpath" : "~/Documents/Max 8/Packages/Antescofo/patchers/Antescofo_Tutorials/abstractions",
				"patcherrelativepath" : "../../../Antescofo/patchers/Antescofo_Tutorials/abstractions",
				"type" : "JSON",
				"implicit" : 1
			}
, 			{
				"name" : "pipo.mxo",
				"type" : "iLaX"
			}
, 			{
				"name" : "shell.mxo",
				"type" : "iLaX"
			}
, 			{
				"name" : "mubu.mxo",
				"type" : "iLaX"
			}
, 			{
				"name" : "mubu.mxo",
				"type" : "iLaX"
			}
, 			{
				"name" : "mubu.mxo",
				"type" : "iLaX"
			}
, 			{
				"name" : "mubu.gmm.mxo",
				"type" : "iLaX"
			}
, 			{
				"name" : "antescofo~.mxo",
				"type" : "iLaX"
			}
 ],
		"autosave" : 0
	}

}
